<!-- Generated by IcoMoon.io -->
<svg version="1.1" xmlns="http://www.w3.org/2000/svg" width="1024" height="1024" viewBox="0 0 1024 1024">
<title></title>
<g id="icomoon-ignore">
</g>
<path d="M505.856 4.096q-135.168 0-251.904 69.632-113.664 67.584-180.224 183.296-69.632 120.832-69.632 261.12 0 135.168 69.632 251.904 66.56 113.664 180.224 180.224 116.736 69.632 251.904 69.632 140.288 0 261.12-69.632 115.712-66.56 183.296-180.224 69.632-116.736 69.632-251.904 0-141.312-69.632-261.12-67.584-115.712-183.296-183.296-119.808-69.632-261.12-69.632zM539.648 760.832q0 2.048-2.048 2.048h-50.176q-3.072 0-3.072-2.048l-8.192-362.496q0-2.048 2.048-2.048h67.584q3.072 0 2.048 2.048zM512 348.16q-18.432 0-31.232-12.8t-12.8-30.72 12.8-30.72 31.232-12.8 31.232 12.8 12.8 30.72-12.8 30.72-31.232 12.8z"></path>
</svg>
