<?xml version="1.0" standalone="no"?>
<!DOCTYPE svg PUBLIC "-//W3C//DTD SVG 1.1//EN" "http://www.w3.org/Graphics/SVG/1.1/DTD/svg11.dtd">
<svg t="1564130418349" class="icon" viewBox="0 0 1024 1024" version="1.1" xmlns="http://www.w3.org/2000/svg" p-id="1088" xmlns:xlink="http://www.w3.org/1999/xlink" width="200" height="200">
	<defs>
		<style type="text/css">
		</style>
	</defs>
	<path d="M401.066667 224h256c87.466667 0 160 72.533333 160 160s-72.533333 160-160 160H362.666667c-53.333333 0-96 42.666667-96 96s42.666667 96 96 96h260.266666c14.933333-66.133333 74.666667-117.333333 145.066667-117.333333 83.2 0 149.333333 66.133333 149.333333 149.333333s-66.133333 149.333333-149.333333 149.333333c-72.533333 0-132.266667-51.2-145.066667-117.333333H362.666667c-87.466667 0-160-72.533333-160-160s72.533333-160 160-160h294.4c53.333333 0 96-42.666667 96-96s-42.666667-96-96-96h-256c-12.8 66.133333-72.533333 117.333333-145.066667 117.333333-83.2 0-149.333333-66.133333-149.333333-149.333333s66.133333-149.333333 149.333333-149.333333c72.533333 0 132.266667 51.2 145.066667 117.333333zM256 341.333333c46.933333 0 85.333333-38.4 85.333333-85.333333s-38.4-85.333333-85.333333-85.333333-85.333333 38.4-85.333333 85.333333 38.4 85.333333 85.333333 85.333333z m512 512c46.933333 0 85.333333-38.4 85.333333-85.333333s-38.4-85.333333-85.333333-85.333333-85.333333 38.4-85.333333 85.333333 38.4 85.333333 85.333333 85.333333z" fill="#ffffff" p-id="1089">
	</path>
</svg>
