<!-- Generated by IcoMoon.io -->
<svg version="1.1" xmlns="http://www.w3.org/2000/svg" width="1024" height="1024" viewBox="0 0 1024 1024">
<title></title>
<g id="icomoon-ignore">
</g>
<path fill="#f7f7f7" d="M1024 512c0 282.77-229.23 512-512 512s-512-229.23-512-512c0-282.77 229.23-512 512-512s512 229.23 512 512z"></path>
<path fill="#e1e1e1" d="M712.328 536.374h-173.649c-9.969 0-18.115-8.039-18.115-18.115 0-9.969 8.039-18.115 18.115-18.115h173.649c9.969 0 18.115 8.039 18.115 18.115s-8.146 18.115-18.115 18.115z"></path>
<path fill="#e1e1e1" d="M712.328 638.313h-173.649c-9.969 0-18.115-8.039-18.115-18.115 0-9.969 8.039-18.115 18.115-18.115h173.649c9.969 0 18.115 8.039 18.115 18.115-0.106 9.861-8.146 18.115-18.115 18.115z"></path>
<path fill="#e1e1e1" d="M712.328 740.144h-173.649c-9.969 0-18.115-8.039-18.115-18.115 0-9.969 8.039-18.115 18.115-18.115h173.649c9.969 0 18.115 8.039 18.115 18.115-0.106 10.075-8.146 18.115-18.115 18.115z"></path>
<path fill="#e1e1e1" d="M377.035 628.344c-65.386 0-118.339 53.167-118.339 118.339 0 9.969 8.039 18.115 18.115 18.115h200.876c9.969 0 19.615-8.682 17.793-20.902-1.607-63.993-54.131-115.552-118.445-115.552zM296.642 728.675c8.254-36.659 41.161-64.207 80.286-64.207s72.032 27.548 80.286 64.207h-160.571z"></path>
<path fill="#e1e1e1" d="M377.035 610.55c37.195 0 67.424-30.227 67.424-67.424s-30.227-67.424-67.424-67.424c-37.196 0-67.424 30.229-67.424 67.425s30.229 67.422 67.424 67.422zM377.035 511.72c17.258 0 31.3 13.935 31.3 31.3s-13.935 31.3-31.3 31.3c-17.15 0-31.3-13.935-31.3-31.3s13.935-31.3 31.3-31.3z"></path>
<path fill="#e1e1e1" d="M782.86 403.351h-151.891v-54.346c0-9.969-8.039-18.115-18.115-18.115h-36.231v-126.593c0.002-9.969-8.039-18.115-18.115-18.115h-93.793c-9.969 0-18.115 8.039-18.115 18.115v126.592h-36.231c-9.969 0-18.115 8.039-18.115 18.115v54.238h-151.782c-29.906 0.108-54.238 24.439-54.238 54.346v325.324c0 29.906 24.333 54.238 54.238 54.238h542.385c29.906 0 54.238-24.333 54.238-54.238v-325.43c0.002-29.8-24.331-54.131-54.237-54.131zM482.832 222.413h57.669v108.477h-57.669v-108.477zM428.486 367.227h166.36v36.124h-166.36v-36.124zM800.975 782.913c0 9.969-8.039 18.115-18.115 18.115h-542.387c-9.969 0-18.115-8.039-18.115-18.115v-325.432c0-9.969 8.039-18.115 18.115-18.115h542.385c9.969 0 18.115 8.039 18.115 18.115v325.432h0.002z"></path>
</svg>
